<?xml version="1.0" encoding="UTF-8" standalone="no"?>
<!-- Created with Inkscape (http://www.inkscape.org/) -->

<svg
   width="71.161041mm"
   height="95.242302mm"
   viewBox="0 0 71.161041 95.242302"
   version="1.1"
   id="svg1"
   sodipodi:docname="gato.svg"
   inkscape:version="1.4 (86a8ad7, 2024-10-11)"
   xml:space="preserve"
   xmlns:inkscape="http://www.inkscape.org/namespaces/inkscape"
   xmlns:sodipodi="http://sodipodi.sourceforge.net/DTD/sodipodi-0.dtd"
   xmlns="http://www.w3.org/2000/svg"
   xmlns:svg="http://www.w3.org/2000/svg"><sodipodi:namedview
     id="namedview1"
     pagecolor="#ffffff"
     bordercolor="#000000"
     borderopacity="0.25"
     inkscape:showpageshadow="2"
     inkscape:pageopacity="0.0"
     inkscape:pagecheckerboard="0"
     inkscape:deskcolor="#d1d1d1"
     inkscape:document-units="mm"
     inkscape:zoom="2.8756734"
     inkscape:cx="157.35445"
     inkscape:cy="154.39862"
     inkscape:window-width="1147"
     inkscape:window-height="1000"
     inkscape:window-x="776"
     inkscape:window-y="0"
     inkscape:window-maximized="0"
     inkscape:current-layer="layer1" /><defs
     id="defs1"><inkscape:path-effect
       effect="fillet_chamfer"
       id="path-effect17"
       is_visible="true"
       lpeversion="1"
       nodesatellites_param="F,0,0,1,0,0,0,1 @ F,0,0,1,0,0,0,1 @ F,0,0,1,0,0,0,1 @ F,0,0,1,0,0,0,1 @ F,0,0,1,0,0,0,1 @ F,0,0,1,0,0,0,1 @ F,0,0,1,0,0,0,1 @ F,0,0,1,0,0,0,1 @ F,0,0,1,0,0,0,1 @ F,0,0,1,0,0,0,1"
       radius="0"
       unit="px"
       method="auto"
       mode="F"
       chamfer_steps="1"
       flexible="false"
       use_knot_distance="true"
       apply_no_radius="true"
       apply_with_radius="true"
       only_selected="false"
       hide_knots="false" /><inkscape:path-effect
       effect="fillet_chamfer"
       id="path-effect15"
       is_visible="true"
       lpeversion="1"
       nodesatellites_param="F,0,0,1,0,0,0,1 @ F,0,0,1,0,0,0,1 @ F,0,0,1,0,0,0,1 @ F,0,0,1,0,0,0,1"
       radius="0"
       unit="px"
       method="auto"
       mode="F"
       chamfer_steps="1"
       flexible="false"
       use_knot_distance="true"
       apply_no_radius="true"
       apply_with_radius="true"
       only_selected="false"
       hide_knots="false" /></defs><g
     inkscape:label="Capa 1"
     inkscape:groupmode="layer"
     id="layer1"
     transform="translate(-74.183617,-78.770824)"><path
       style="fill:#a02c89;stroke:none;stroke-width:1.065;stroke-linecap:round;stroke-linejoin:round;stroke-dasharray:none;stroke-opacity:1"
       d="M 81.746733,164.27418 C 80.868617,148.50052 96.810876,111.1779 97.616361,125.10129 l 26.516359,1.30851 10.40946,35.32707 c -8.22619,15.42175 -36.710416,16.3656 -52.795447,2.53731 z"
       id="path9"
       sodipodi:nodetypes="ccccc" /><rect
       style="fill:#a02c89;stroke:none;stroke-width:1.065;stroke-linecap:round;stroke-linejoin:round;stroke-dasharray:none;stroke-opacity:1"
       id="rect9"
       width="9.4767666"
       height="16.193308"
       x="111.79948"
       y="113.16905"
       ry="4.7383833"
       transform="rotate(9.279867)" /><path
       style="fill:#681d5a;fill-opacity:1;stroke:none;stroke-width:1.065;stroke-linecap:round;stroke-linejoin:round;stroke-dasharray:none;stroke-opacity:1"
       d="m 92.725455,126.06877 31.423535,0.84577 c -3.97285,7.31287 -12.08934,10.92766 -31.423535,-0.84577 z"
       id="path16"
       sodipodi:nodetypes="ccc" /><ellipse
       style="fill:#000000;stroke-width:0.264583"
       id="path1"
       cx="109.76414"
       cy="106.81075"
       rx="35.580521"
       ry="21.989969" /><ellipse
       style="fill:#ffd42a;stroke-width:0.36097"
       id="path3"
       cx="136.49016"
       cy="-19.867771"
       rx="10.626859"
       ry="13.387081"
       transform="rotate(56.824538)" /><ellipse
       style="fill:#000000;stroke-width:0.269975"
       id="path4"
       cx="136.26013"
       cy="-19.683765"
       rx="7.8206315"
       ry="11.454926"
       transform="rotate(56.824538)" /><circle
       style="fill:#ffd42a;stroke-width:0.279843"
       id="path3-8"
       cx="37.0984"
       cy="163.63075"
       r="9.246747"
       transform="rotate(-38.870087)" /><ellipse
       style="fill:#000000;stroke-width:0.209299"
       id="path4-8"
       cx="36.898235"
       cy="163.75784"
       rx="6.804965"
       ry="7.9121647"
       transform="rotate(-38.870087)" /><ellipse
       style="fill:#681d5a;fill-opacity:1;stroke:none;stroke-width:1.07373;stroke-linecap:round;stroke-linejoin:round;stroke-dasharray:none;stroke-opacity:1"
       id="path15"
       cx="100.02815"
       cy="146.89346"
       rx="1.364045"
       ry="6.3449049" /><path
       style="fill:#000000;stroke:none;stroke-width:1.33188;stroke-linecap:round;stroke-linejoin:round;stroke-dasharray:none;stroke-opacity:1"
       id="path10"
       sodipodi:type="arc"
       sodipodi:cx="-133.10303"
       sodipodi:cy="101.69469"
       sodipodi:rx="3.9526293"
       sodipodi:ry="4.2338724"
       sodipodi:start="0"
       sodipodi:end="3.1147601"
       sodipodi:open="true"
       sodipodi:arc-type="arc"
       d="m -129.1504,101.69469 a 3.9526293,4.2338724 0 0 1 -3.8996,4.23349 3.9526293,4.2338724 0 0 1 -4.00423,-4.1199"
       transform="matrix(0.01849188,-0.99982901,0.99436485,0.10601198,0,0)" /><path
       style="fill:#000000;stroke:#000000;stroke-width:1.065;stroke-linecap:round;stroke-linejoin:round;stroke-dasharray:none;stroke-opacity:1"
       d="m 80.138475,95.135686 1.194974,-8.337273 9.845917,2.172775 z"
       id="path12"
       sodipodi:nodetypes="cccc" /><path
       style="fill:#000000;stroke:#000000;stroke-width:1.065;stroke-linecap:round;stroke-linejoin:round;stroke-dasharray:none;stroke-opacity:1"
       d="m 127.62969,89.827015 10.61612,-3.249101 0.97589,8.301584 z"
       id="path12-5"
       sodipodi:nodetypes="cccc" /><path
       id="path17"
       transform="matrix(0.53014338,0,0,0.53014338,57.538305,65.977522)"
       inkscape:transform-center-x="0.053646237"
       inkscape:transform-center-y="-0.24313114"
       d="m 116.96773,149.92497 -5.35736,-6.51187 -5.03225,4.197 2.15602,-6.04878 -6.10559,0.28493 6.97793,-3.59262 -0.94172,-6.37895 4.35709,6.18647 5.32241,-1.86931 -4.08394,5.05803 z"
       style="fill:#681d5a;fill-opacity:1;stroke:#681d5a;stroke-width:1.065;stroke-linecap:round;stroke-linejoin:round;stroke-dasharray:none;stroke-opacity:1"
       sodipodi:nodetypes="ccccccccccc" /><path
       style="fill:#d35f5f;stroke-width:0.0945497"
       d="m 115.6412,104.91457 c -0.26017,-0.22565 -0.46624,-0.39551 -0.89522,-0.73791 -0.36512,-0.29142 -0.48308,-0.38903 -0.61912,-0.51232 -0.34511,-0.31276 -0.5145,-0.56712 -0.5942,-0.89223 -0.0324,-0.13198 -0.0481,-0.26725 -0.0505,-0.43347 -0.002,-0.0997 3.8e-4,-0.1391 0.009,-0.20117 0.0499,-0.34729 0.273,-0.63878 0.60707,-0.79317 0.26794,-0.12382 0.59296,-0.14734 0.87737,-0.0634 0.23253,0.0686 0.44009,0.20385 0.60727,0.39581 0.0316,0.0363 0.0696,0.0855 0.0945,0.12248 0.0113,0.0168 0.0212,0.0306 0.0218,0.0306 4.8e-4,0 0.0105,-0.0138 0.0219,-0.0306 0.0536,-0.0795 0.11855,-0.15472 0.19526,-0.22617 0.0819,-0.0763 0.15788,-0.13216 0.25059,-0.18428 0.24087,-0.1354 0.51881,-0.18489 0.8017,-0.14275 0.3627,0.0541 0.66524,0.2571 0.82755,0.55546 0.0591,0.10866 0.0967,0.22612 0.1143,0.3575 0.005,0.038 0.005,0.0502 0.005,0.15308 -1e-5,0.10952 -7.7e-4,0.13558 -0.01,0.2226 -0.018,0.18007 -0.0617,0.34883 -0.12757,0.49167 -0.0987,0.21412 -0.25204,0.40728 -0.50664,0.6381 -0.13916,0.12615 -0.25624,0.22274 -0.68108,0.56186 -0.36007,0.28743 -0.58588,0.47376 -0.81006,0.66842 -0.0616,0.0535 -0.0805,0.0695 -0.0819,0.0694 -4.7e-4,-2e-5 -0.0266,-0.0223 -0.058,-0.0495 z"
       id="path18" /></g></svg>
